<?xml version="1.0" encoding="UTF-8"?>
<svg version="1.1" xmlns="http://www.w3.org/2000/svg" width="2048" height="2048">
<path d="M0 0 C1.69861375 -0.00702231 3.39722723 -0.01410913 5.09584045 -0.02125549 C10.49098086 -0.04064576 15.88607826 -0.04568924 21.28125 -0.046875 C22.20025463 -0.04731686 23.11925926 -0.04775871 24.06611252 -0.04821396 C50.61413438 -0.05490911 77.04737492 0.04470402 103.46728516 2.94989014 C105.90181823 3.2163197 108.33744744 3.47040293 110.7734375 3.72314453 C196.07230416 12.67661501 279.9548714 33.96688203 399.78125 86.203125 C400.91771973 86.75210449 402.05418945 87.30108398 403.22509766 87.86669922 C417.80242349 94.94423355 432.01664953 102.52148225 446.04492188 110.62988281 C448.72328767 112.16979976 451.41353173 113.68623713 454.109375 115.1953125 C466.96466315 122.41237923 479.43112774 130.15435086 491.78125 138.203125 C492.39822754 138.60515137 493.01520508 139.00717773 493.65087891 139.42138672 C497.0519998 141.6467355 500.42131717 143.91618831 503.78125 146.203125 C504.64049072 146.78296143 504.64049072 146.78296143 505.51708984 147.37451172 C526.64308498 161.63690332 547.16418255 176.92642507 566.78125 193.203125 C568.53112688 194.61994374 570.28113049 196.03660598 572.03125 197.453125 C582.69775145 206.18717897 593.01067746 215.31453186 603.11999512 224.68464661 C604.38313319 225.83922432 605.65699637 226.98208102 606.93566895 228.11943054 C612.89540745 233.42360823 618.62811443 238.90294682 624.26171875 244.55078125 C625.11880936 245.40691513 625.97589996 246.26304901 626.85896301 247.14512634 C628.65419209 248.93968035 630.44818085 250.73547596 632.2409668 252.5324707 C634.96876402 255.26563905 637.70187895 257.99340795 640.43554688 260.72070312 C642.19042498 262.47624187 643.94499294 264.23209071 645.69921875 265.98828125 C646.50667038 266.79370865 647.31412201 267.59913605 648.14604187 268.42897034 C652.3621985 272.6624311 656.42771675 276.96947963 660.31980896 281.50357056 C662.3750461 283.89366863 664.51742635 286.2003664 666.65625 288.515625 C670.72984909 292.98186014 674.58952703 297.57233879 678.3828125 302.27734375 C680.55343342 304.92521846 682.7737648 307.51418574 685.02294922 310.09472656 C691.69828542 317.76628484 697.89174513 325.74042562 704.00683594 333.86230469 C705.86569102 336.31452023 707.7466392 338.74843173 709.6328125 341.1796875 C719.18996763 353.53120946 728.14497139 366.19312819 736.78125 379.203125 C737.3985498 380.12851074 738.01584961 381.05389648 738.65185547 382.00732422 C748.49897289 396.79722799 757.77692322 411.88735422 766.78125 427.203125 C767.29220215 428.06518555 767.8031543 428.92724609 768.32958984 429.81542969 C778.2278019 446.54694196 787.04128652 463.84733101 795.78125 481.203125 C796.60906982 482.8425708 796.60906982 482.8425708 797.45361328 484.51513672 C811.65279927 512.81766076 823.71425054 542.34369611 834.10083008 572.24584961 C834.80807683 574.28029426 835.52018419 576.31300089 836.23242188 578.34570312 C862.99058703 654.96492069 878.79602162 735.70972372 882.984375 837.421875 C882.99139731 839.12048875 882.99848413 840.81910223 883.00563049 842.51771545 C883.02502076 847.91285586 883.03006424 853.30795326 883.03125 858.703125 C883.03169186 859.62212963 883.03213371 860.54113426 883.03258896 861.48798752 C883.03928411 888.03600938 882.93967098 914.46924992 880.03448486 940.88916016 C879.7680553 943.32369323 879.51397207 945.75932244 879.26123047 948.1953125 C870.30775999 1033.49417916 849.01749297 1117.3767464 796.78125 1237.203125 C796.23227051 1238.33959473 795.68329102 1239.47606445 795.11767578 1240.64697266 C788.04014145 1255.22429849 780.46289275 1269.43852453 772.35449219 1283.46679688 C770.81457524 1286.14516267 769.29813787 1288.83540673 767.7890625 1291.53125 C760.57199577 1304.38653815 752.83002414 1316.85300274 744.78125 1329.203125 C744.37922363 1329.82010254 743.97719727 1330.43708008 743.56298828 1331.07275391 C741.3376395 1334.4738748 739.06818669 1337.84319217 736.78125 1341.203125 C736.39469238 1341.77595215 736.00813477 1342.3487793 735.60986328 1342.93896484 C721.34747168 1364.06495998 706.05794993 1384.58605755 689.78125 1404.203125 C688.36443126 1405.95300188 686.94776902 1407.70300549 685.53125 1409.453125 C676.79719603 1420.11962645 667.66984314 1430.43255246 658.29972839 1440.54187012 C657.14515068 1441.80500819 656.00229398 1443.07887137 654.86494446 1444.35754395 C649.56076677 1450.31728245 644.08142818 1456.04998943 638.43359375 1461.68359375 C637.57745987 1462.54068436 636.72132599 1463.39777496 635.83924866 1464.28083801 C634.04469465 1466.07606709 632.24889904 1467.87005585 630.4519043 1469.6628418 C627.71873595 1472.39063902 624.99096705 1475.12375395 622.26367188 1477.85742188 C620.50813313 1479.61229998 618.75228429 1481.36686794 616.99609375 1483.12109375 C616.19066635 1483.92854538 615.38523895 1484.73599701 614.55540466 1485.56791687 C610.3219439 1489.7840735 606.01489537 1493.84959175 601.48080444 1497.74168396 C599.09070637 1499.7969211 596.7840086 1501.93930135 594.46875 1504.078125 C590.00251486 1508.15172409 585.41203621 1512.01140203 580.70703125 1515.8046875 C578.05915654 1517.97530842 575.47018926 1520.1956398 572.88964844 1522.44482422 C565.21809016 1529.12016042 557.24394938 1535.31362013 549.12207031 1541.42871094 C546.66985477 1543.28756602 544.23594327 1545.1685142 541.8046875 1547.0546875 C529.45316554 1556.61184263 516.79124681 1565.56684639 503.78125 1574.203125 C502.85586426 1574.8204248 501.93047852 1575.43772461 500.97705078 1576.07373047 C486.18714701 1585.92084789 471.09702078 1595.19879822 455.78125 1604.203125 C454.91918945 1604.71407715 454.05712891 1605.2250293 453.16894531 1605.75146484 C436.43743304 1615.6496769 419.13704399 1624.46316152 401.78125 1633.203125 C400.68828613 1633.75500488 399.59532227 1634.30688477 398.46923828 1634.87548828 C370.16671424 1649.07467427 340.64067889 1661.13612554 310.73852539 1671.52270508 C308.70408074 1672.22995183 306.67137411 1672.94205919 304.63867188 1673.65429688 C228.01945431 1700.41246203 147.27465128 1716.21789662 45.5625 1720.40625 C43.86388625 1720.41327231 42.16527277 1720.42035913 40.46665955 1720.42750549 C35.07151914 1720.44689576 29.67642174 1720.45193924 24.28125 1720.453125 C22.90274305 1720.45378778 22.90274305 1720.45378778 21.49638748 1720.45446396 C-5.05163438 1720.46115911 -31.48487492 1720.36154598 -57.90478516 1717.45635986 C-60.33931823 1717.1899303 -62.77494744 1716.93584707 -65.2109375 1716.68310547 C-150.50980416 1707.72963499 -234.3923714 1686.43936797 -354.21875 1634.203125 C-355.92345459 1633.37965576 -355.92345459 1633.37965576 -357.66259766 1632.53955078 C-372.23992349 1625.46201645 -386.45414953 1617.88476775 -400.48242188 1609.77636719 C-403.16078767 1608.23645024 -405.85103173 1606.72001287 -408.546875 1605.2109375 C-421.40216315 1597.99387077 -433.86862774 1590.25189914 -446.21875 1582.203125 C-446.83572754 1581.80109863 -447.45270508 1581.39907227 -448.08837891 1580.98486328 C-451.4894998 1578.7595145 -454.85881717 1576.49006169 -458.21875 1574.203125 C-458.79157715 1573.81656738 -459.3644043 1573.43000977 -459.95458984 1573.03173828 C-481.08058498 1558.76934668 -501.60168255 1543.47982493 -521.21875 1527.203125 C-522.96862688 1525.78630626 -524.71863049 1524.36964402 -526.46875 1522.953125 C-537.13525145 1514.21907103 -547.44817746 1505.09171814 -557.55749512 1495.72160339 C-558.82063319 1494.56702568 -560.09449637 1493.42416898 -561.37316895 1492.28681946 C-567.33290745 1486.98264177 -573.06561443 1481.50330318 -578.69921875 1475.85546875 C-579.98485466 1474.57126793 -579.98485466 1474.57126793 -581.29646301 1473.26112366 C-583.09169209 1471.46656965 -584.88568085 1469.67077404 -586.6784668 1467.8737793 C-589.40626402 1465.14061095 -592.13937895 1462.41284205 -594.87304688 1459.68554688 C-596.62792498 1457.93000813 -598.38249294 1456.17415929 -600.13671875 1454.41796875 C-600.94417038 1453.61254135 -601.75162201 1452.80711395 -602.58354187 1451.97727966 C-606.7996985 1447.7438189 -610.86521675 1443.43677037 -614.75730896 1438.90267944 C-616.8125461 1436.51258137 -618.95492635 1434.2058836 -621.09375 1431.890625 C-625.16734909 1427.42438986 -629.02702703 1422.83391121 -632.8203125 1418.12890625 C-634.99093342 1415.48103154 -637.2112648 1412.89206426 -639.46044922 1410.31152344 C-646.13578542 1402.63996516 -652.32924513 1394.66582438 -658.44433594 1386.54394531 C-660.30319102 1384.09172977 -662.1841392 1381.65781827 -664.0703125 1379.2265625 C-673.62746763 1366.87504054 -682.58247139 1354.21312181 -691.21875 1341.203125 C-692.14469971 1339.81504639 -692.14469971 1339.81504639 -693.08935547 1338.39892578 C-702.93647289 1323.60902201 -712.21442322 1308.51889578 -721.21875 1293.203125 C-721.98517822 1291.91003418 -721.98517822 1291.91003418 -722.76708984 1290.59082031 C-732.6653019 1273.85930804 -741.47878652 1256.55891899 -750.21875 1239.203125 C-750.77062988 1238.11016113 -751.32250977 1237.01719727 -751.89111328 1235.89111328 C-766.09029927 1207.58858924 -778.15175054 1178.06255389 -788.53833008 1148.16040039 C-789.24557683 1146.12595574 -789.95768419 1144.09324911 -790.66992188 1142.06054688 C-817.42808703 1065.44132931 -833.23352162 984.69652628 -837.421875 882.984375 C-837.42889731 881.28576125 -837.43598413 879.58714777 -837.44313049 877.88853455 C-837.46252076 872.49339414 -837.46756424 867.09829674 -837.46875 861.703125 C-837.46919186 860.78412037 -837.46963371 859.86511574 -837.47008896 858.91826248 C-837.47678411 832.37024062 -837.37717098 805.93700008 -834.47198486 779.51708984 C-834.2055553 777.08255677 -833.95147207 774.64692756 -833.69873047 772.2109375 C-824.74525999 686.91207084 -803.45499297 603.0295036 -751.21875 483.203125 C-750.39528076 481.49842041 -750.39528076 481.49842041 -749.55517578 479.75927734 C-742.47764145 465.18195151 -734.90039275 450.96772547 -726.79199219 436.93945312 C-725.25207524 434.26108733 -723.73563787 431.57084327 -722.2265625 428.875 C-715.00949577 416.01971185 -707.26752414 403.55324726 -699.21875 391.203125 C-698.81672363 390.58614746 -698.41469727 389.96916992 -698.00048828 389.33349609 C-695.7751395 385.9323752 -693.50568669 382.56305783 -691.21875 379.203125 C-690.83219238 378.63029785 -690.44563477 378.0574707 -690.04736328 377.46728516 C-675.78497168 356.34129002 -660.49544993 335.82019245 -644.21875 316.203125 C-642.80193126 314.45324812 -641.38526902 312.70324451 -639.96875 310.953125 C-631.23469603 300.28662355 -622.10734314 289.97369754 -612.73722839 279.86437988 C-611.58265068 278.60124181 -610.43979398 277.32737863 -609.30244446 276.04870605 C-603.99826677 270.08896755 -598.51892818 264.35626057 -592.87109375 258.72265625 C-591.58689293 257.43702034 -591.58689293 257.43702034 -590.27674866 256.12541199 C-588.48219465 254.33018291 -586.68639904 252.53619415 -584.8894043 250.7434082 C-582.15623595 248.01561098 -579.42846705 245.28249605 -576.70117188 242.54882812 C-574.94563313 240.79395002 -573.18978429 239.03938206 -571.43359375 237.28515625 C-570.62816635 236.47770462 -569.82273895 235.67025299 -568.99290466 234.83833313 C-564.7594439 230.6221765 -560.45239537 226.55665825 -555.91830444 222.66456604 C-553.52820637 220.6093289 -551.2215086 218.46694865 -548.90625 216.328125 C-544.44001486 212.25452591 -539.84953621 208.39484797 -535.14453125 204.6015625 C-532.49665654 202.43094158 -529.90768926 200.2106102 -527.32714844 197.96142578 C-519.65559016 191.28608958 -511.68144938 185.09262987 -503.55957031 178.97753906 C-501.10735477 177.11868398 -498.67344327 175.2377358 -496.2421875 173.3515625 C-483.89066554 163.79440737 -471.22874681 154.83940361 -458.21875 146.203125 C-457.29336426 145.5858252 -456.36797852 144.96852539 -455.41455078 144.33251953 C-440.62464701 134.48540211 -425.53452078 125.20745178 -410.21875 116.203125 C-408.92565918 115.43669678 -408.92565918 115.43669678 -407.60644531 114.65478516 C-390.87493304 104.7565731 -373.57454399 95.94308848 -356.21875 87.203125 C-354.5793042 86.37530518 -354.5793042 86.37530518 -352.90673828 85.53076172 C-324.60421424 71.33157573 -295.07817889 59.27012446 -265.17602539 48.88354492 C-263.14158074 48.17629817 -261.10887411 47.46419081 -259.07617188 46.75195312 C-182.45695431 19.99378797 -101.71215128 4.18835338 0 0 Z " fill="#003B36" transform="translate(1002.21875,164.796875)"/>
<path d="M0 0 C1.57249512 0.41270142 1.57249512 0.41270142 3.17675781 0.83374023 C6.14423277 1.62026381 9.10440628 2.42898456 12.0625 3.25 C13.13491943 3.54511475 13.13491943 3.54511475 14.22900391 3.84619141 C20.82274503 5.68618399 27.07248905 8.01161273 33.3515625 10.72265625 C37.24919097 12.36533916 41.21994606 13.79781312 45.19091797 15.25195312 C69.18296863 24.05988872 92.15490717 34.97180962 115.0625 46.25 C116.10043701 46.75909912 117.13837402 47.26819824 118.20776367 47.79272461 C124.83501571 51.06938778 131.32477425 54.53139124 137.75 58.1875 C139.21977295 59.0232959 139.21977295 59.0232959 140.71923828 59.87597656 C177.91935359 81.13150117 214.10628042 104.55718212 245.515625 133.88671875 C247.59614048 135.81725842 249.70705435 137.67021682 251.875 139.5 C261.25465656 147.63823143 270.10691121 156.72137433 278.0625 166.25 C278.8771875 167.18714844 279.691875 168.12429688 280.53125 169.08984375 C299.64283792 191.13957353 315.48413489 215.58888675 325.0625 243.25 C325.36591309 244.11044922 325.66932617 244.97089844 325.98193359 245.85742188 C328.13760457 252.39160149 329.26656454 258.45847763 327.14453125 265.140625 C326.72558594 265.91921875 326.30664062 266.6978125 325.875 267.5 C325.26591797 268.68335938 325.26591797 268.68335938 324.64453125 269.890625 C320.32273175 276.33597536 314.89758601 279.1133021 308.125 282.4375 C285.15731214 294.12834884 265.32358767 311.45420427 249.34831238 331.64022827 C248.0391258 333.27926331 246.71139906 334.90155666 245.37866211 336.52148438 C238.03021419 345.49938718 231.42190434 354.80287227 225.0625 364.5 C224.09326693 365.96782912 223.12369914 367.43543727 222.15380859 368.90283203 C219.44380739 373.01017494 216.74950734 377.12758628 214.0625 381.25 C213.11745605 382.69874512 213.11745605 382.69874512 212.15332031 384.17675781 C203.01237982 398.26143745 194.55489125 412.76903406 186.0625 427.25 C185.15298584 428.80025879 185.15298584 428.80025879 184.22509766 430.38183594 C178.93101299 439.4143836 173.65719337 448.45820814 168.453125 457.54296875 C160.52730786 471.37061023 152.39457335 485.04916549 144.0859375 498.6484375 C141.03099346 503.64940836 138.01143525 508.66982557 135.01464844 513.70581055 C130.24711219 521.71394969 125.34058443 529.56503326 120.0625 537.25 C119.07605266 538.71172007 118.09044585 540.17400756 117.10546875 541.63671875 C107.38952925 556.01666055 97.22619137 569.95348635 86.0625 583.25 C85.19135921 584.29683585 84.32026762 585.34371266 83.44921875 586.390625 C72.78466461 599.15349812 61.7150542 611.4200918 49.0625 622.25 C48.13824219 623.06339844 47.21398438 623.87679687 46.26171875 624.71484375 C38.28368057 631.67719478 29.87596649 637.85268801 21.13964844 643.82861328 C19.21421146 645.14618428 17.29813979 646.47639571 15.3828125 647.80859375 C4.9987195 654.95582798 -5.90058986 661.17334267 -16.9375 667.25 C-17.80181641 667.72614746 -18.66613281 668.20229492 -19.55664062 668.69287109 C-33.00869298 676.04676139 -46.76978301 682.40412958 -60.9375 688.25 C-62.02981934 688.70407227 -63.12213867 689.15814453 -64.24755859 689.62597656 C-80.23737901 696.23190665 -96.31065261 701.79472616 -112.97851562 706.42724609 C-115.62048244 707.16185238 -118.25637667 707.91406435 -120.890625 708.67578125 C-125.22578855 709.92111788 -129.57542092 711.10275939 -133.9375 712.25 C-134.65776367 712.44126465 -135.37802734 712.6325293 -136.12011719 712.82958984 C-157.91840872 718.53731285 -180.30424723 722.19139683 -202.52734375 725.83203125 C-208.50300369 726.81357855 -214.42179496 727.90571088 -220.3125 729.3125 C-225.27709438 730.45792708 -230.21410611 731.51840372 -235.25 732.3125 C-241.56490212 733.31734039 -247.74203324 734.66937978 -253.9375 736.25 C-255.06929687 736.518125 -256.20109375 736.78625 -257.3671875 737.0625 C-275.1792789 741.88268541 -291.66296034 751.91107077 -307.39111328 761.36132812 C-317.81338203 767.61820448 -328.49703683 773.42403986 -339.15319824 779.27032471 C-340.91594006 780.23816246 -342.67721808 781.20866473 -344.43847656 782.17919922 C-400.66559572 813.08910611 -467.25303856 843.3361431 -532.75 826.9375 C-534.4882435 826.40370869 -536.2169757 825.83840441 -537.9375 825.25 C-539.72607422 824.65251953 -539.72607422 824.65251953 -541.55078125 824.04296875 C-575.19756541 812.36127139 -606.04360787 787.73883463 -621.9140625 755.4140625 C-625.29652639 748.17702508 -628.58218916 740.89405427 -630.9375 733.25 C-631.27910156 732.15945313 -631.62070312 731.06890625 -631.97265625 729.9453125 C-634.31430303 721.80742218 -635.46338333 714.27279595 -635.76171875 705.80859375 C-635.92337969 702.53585782 -636.37002752 699.47163508 -636.9375 696.25 C-637.67720549 687.94253837 -635.90565988 680.28382502 -633.9375 672.25 C-633.6590625 671.03957031 -633.380625 669.82914063 -633.09375 668.58203125 C-626.80281836 642.84886691 -612.21337515 620.18328073 -593.9375 601.25 C-593.31633301 600.59773437 -592.69516602 599.94546875 -592.05517578 599.2734375 C-582.04644437 588.80461425 -571.88340672 579.4415554 -559.9375 571.25 C-558.75679932 570.43136475 -558.75679932 570.43136475 -557.55224609 569.59619141 C-511.14884978 537.54994632 -458.30829297 514.81660871 -403.65869141 500.95507812 C-400.65172481 500.17595382 -397.66016463 499.34964225 -394.66796875 498.515625 C-392.46637652 497.90541708 -390.26455083 497.29605088 -388.0625 496.6875 C-386.97952637 496.38787354 -385.89655273 496.08824707 -384.78076172 495.77954102 C-378.26536242 494.01986865 -371.77385479 492.6211473 -365.13037109 491.44213867 C-354.40262007 489.49856001 -347.5958777 487.37355323 -339.9375 479.25 C-337.93672054 477.3497067 -335.91113756 475.47793769 -333.88476562 473.60498047 C-331.85123788 471.71889744 -329.83998703 469.81166882 -327.83203125 467.8984375 C-324.58474774 464.82499143 -321.24538336 461.87631048 -317.8684082 458.94677734 C-314.88703743 456.3269105 -312.01160733 453.59823019 -309.125 450.875 C-304.12626768 446.19211797 -298.99762149 441.77467204 -293.6484375 437.4921875 C-290.64844135 435.01092267 -287.78618089 432.40113463 -284.9375 429.75 C-280.39263384 425.52612775 -275.70742179 421.53966086 -270.875 417.6484375 C-266.78501563 414.30900878 -262.7902323 410.86268175 -258.79541016 407.41040039 C-258.23644043 406.92821045 -257.6774707 406.44602051 -257.1015625 405.94921875 C-256.61123535 405.52471436 -256.1209082 405.10020996 -255.61572266 404.6628418 C-253.42271921 402.81662257 -251.18087259 401.03446848 -248.9375 399.25 C-249.72584229 399.12995605 -250.51418457 399.00991211 -251.32641602 398.88623047 C-268.47542003 396.24103113 -285.27862918 393.21524628 -301.9375 388.25 C-303.28013916 387.85192139 -303.28013916 387.85192139 -304.64990234 387.44580078 C-323.15850845 381.85747773 -339.92625801 374.05616356 -356.08349609 363.45507812 C-359.33836049 361.33945913 -362.63941486 359.2973477 -365.9375 357.25 C-366.4221875 357.74628906 -366.906875 358.24257813 -367.40625 358.75390625 C-368.0765625 359.43324219 -368.746875 360.11257813 -369.4375 360.8125 C-370.0871875 361.47378906 -370.736875 362.13507813 -371.40625 362.81640625 C-401.45070201 391.70173588 -440.482048 418.715054 -481.9375 427.25 C-482.11649307 432.83607542 -481.39857923 437.94530891 -480.4375 443.4375 C-478.7400268 453.75239146 -478.63800532 463.82314813 -478.9375 474.25 C-480.01173218 474.67744507 -480.01173218 474.67744507 -481.10766602 475.11352539 C-524.04823575 492.29859229 -564.70971584 513.14336152 -600.9375 542.25 C-601.81100098 542.94778564 -601.81100098 542.94778564 -602.70214844 543.65966797 C-618.72115397 556.57539465 -634.08824099 571.37276005 -645.9375 588.25 C-646.36708008 588.86182129 -646.79666016 589.47364258 -647.23925781 590.10400391 C-652.89508763 598.2433364 -658.07865715 606.61026951 -662.9375 615.25 C-665.80823305 612.37926695 -666.21131378 608.94993686 -667.14453125 605.11328125 C-667.35030792 604.29006882 -667.55608459 603.46685638 -667.76809692 602.61869812 C-668.43630561 599.93511119 -669.09364391 597.24900842 -669.75 594.5625 C-670.20433152 592.72196152 -670.65884028 590.88146679 -671.11352539 589.04101562 C-675.24601504 572.24466097 -679.06955741 555.41371975 -682.15380859 538.39160156 C-682.78476682 534.98822656 -683.49641733 531.60809533 -684.23472595 528.22662354 C-687.17034576 514.72208758 -689.51274786 501.11423402 -691.875 487.5 C-692.09604401 486.22823914 -692.31708801 484.95647827 -692.54483032 483.6461792 C-693.63893924 477.34720181 -694.72895749 471.04753757 -695.81445312 464.74707031 C-696.45869358 461.01055586 -697.10693121 457.27494773 -697.77148438 453.54199219 C-700.99554529 435.42166127 -703.25715024 417.19901018 -705.44827652 398.93022919 C-705.68379517 396.96836117 -705.92078902 395.00667043 -706.1578064 393.04498291 C-707.87050187 378.78738918 -709.40635097 364.60353273 -709.9375 350.25 C-709.98712891 349.25250732 -710.03675781 348.25501465 -710.08789062 347.22729492 C-710.62050048 335.89559757 -709.92558313 326.66728925 -704.9375 316.25 C-704.60991699 315.55116699 -704.28233398 314.85233398 -703.94482422 314.13232422 C-697.65019783 300.87611012 -689.61180161 289.04736968 -680.9375 277.25 C-680.28152832 276.35112061 -680.28152832 276.35112061 -679.61230469 275.43408203 C-677.10256749 272.00106827 -674.53607361 268.61612382 -671.9375 265.25 C-671.52467773 264.71246094 -671.11185547 264.17492187 -670.68652344 263.62109375 C-661.59615273 251.80563042 -651.95878266 240.50757624 -641.94140625 229.46875 C-640.12438018 227.45691607 -638.33805608 225.42339566 -636.5625 223.375 C-633.15444165 219.46204412 -629.64894721 215.64084601 -626.13427734 211.82397461 C-623.12394906 208.55288891 -620.14662917 205.25515847 -617.1875 201.9375 C-614.13279356 198.52949122 -610.98734932 195.26575284 -607.7190094 192.06394958 C-605.95441073 190.26721866 -604.31320562 188.40893827 -602.67553711 186.49633789 C-599.18367244 182.48295611 -595.52066231 178.68798921 -591.75390625 174.93359375 C-591.09470688 174.27343765 -590.43550751 173.61328156 -589.7563324 172.93312073 C-588.37353165 171.54964494 -586.98948924 170.16740917 -585.60424805 168.78637695 C-583.50519657 166.69268331 -581.4115406 164.59370126 -579.31835938 162.49414062 C-577.96386214 161.14030429 -576.60905469 159.78677825 -575.25390625 158.43359375 C-574.63906876 157.81673203 -574.02423126 157.1998703 -573.39076233 156.5643158 C-569.61892574 152.81237967 -565.72824481 149.25216978 -561.69273376 145.78504944 C-559.32601511 143.71522249 -557.130227 141.50198989 -554.9375 139.25 C-551.46841869 135.74406958 -547.93470673 132.42200737 -544.1875 129.21875 C-541.84836515 127.172007 -539.57636396 125.06547531 -537.30517578 122.9440918 C-531.8673491 117.86578432 -526.32502857 113.02691575 -520.515625 108.37109375 C-518.0833936 106.37003065 -515.79553795 104.28007672 -513.5 102.125 C-508.49847981 97.56716305 -503.15456095 93.50498617 -497.75 89.4375 C-496.89414307 88.79087402 -496.03828613 88.14424805 -495.15649414 87.47802734 C-483.88980452 79.07920244 -472.25890583 74.18198775 -458.66796875 70.83203125 C-457.79458862 70.61574066 -456.9212085 70.39945007 -456.0213623 70.17660522 C-447.04272084 67.98428019 -438.01175347 66.12295927 -428.9375 64.375 C-427.64771744 64.12453918 -427.64771744 64.12453918 -426.33187866 63.86901855 C-396.43113865 58.08228401 -366.3237872 53.53020952 -336.11914062 49.66308594 C-331.15772383 49.01892409 -326.20326103 48.32883498 -321.25 47.625 C-320.454729 47.51381836 -319.65945801 47.40263672 -318.84008789 47.28808594 C-315.0420843 46.74534041 -311.27518034 46.12872177 -307.50878906 45.39819336 C-298.11592575 43.68262056 -288.63961649 42.47717179 -279.18359375 41.16796875 C-277.03870923 40.86915755 -274.89385819 40.57010588 -272.7490387 40.27082825 C-267.10222515 39.48338092 -261.45506782 38.69842981 -255.80780029 37.91424561 C-218.76797237 32.78624001 -218.76797237 32.78624001 -181.75390625 27.4765625 C-180.46826279 27.28930099 -179.18261932 27.10203949 -177.85801697 26.90910339 C-165.78082931 25.12583096 -153.76265831 23.02322426 -141.73828125 20.91796875 C-132.23642881 19.26957387 -122.71073731 17.77869992 -113.18408203 16.28173828 C-69.7562542 10.90668105 -69.7562542 10.90668105 -28.1484375 -1.39453125 C-18.97152638 -4.9032505 -9.12661415 -2.48752815 0 0 Z " fill="#65FE98" transform="translate(1361.9375,263.75)"/>
<path d="M0 0 C0.66 0 1.32 0 2 0 C2.02578125 0.71800781 2.0515625 1.43601562 2.078125 2.17578125 C4.38007575 44.1863825 25.46231492 83.87168985 54 114 C54.86882812 114.93328125 55.73765625 115.8665625 56.6328125 116.828125 C72.92970677 133.97113342 92.78045857 145.95260511 114 156 C114.92296875 156.44988281 115.8459375 156.89976562 116.796875 157.36328125 C131.61271778 164.0917779 148.78665864 168.5937408 165 170 C166.485 170.16242188 166.485 170.16242188 168 170.328125 C186.80859029 172.07990547 205.8418146 171.78198226 224.4375 168.453125 C227.06848956 167.98788904 229.70411956 167.56940955 232.34375 167.15625 C246.247467 164.90189632 259.59252675 161.28512455 273 157 C273.85271484 156.72816895 274.70542969 156.45633789 275.58398438 156.17626953 C306.90254745 146.03685369 337.43837426 131.77415182 366.08349609 115.63916016 C369.31524925 113.82282074 372.55711589 112.02544517 375.80078125 110.23046875 C384.68981876 105.30992617 393.57791602 100.38821236 402.40698242 95.3605957 C409.54802334 91.29959575 416.78480028 87.43568761 424.0625 83.625 C425.03928711 83.11235596 426.01607422 82.59971191 427.02246094 82.0715332 C434.11761098 78.37987243 440.84651855 75.06873653 448.6875 73.25 C449.78449219 72.98703125 450.88148438 72.7240625 452.01171875 72.453125 C454.92679238 72.01110076 456.30270729 71.95229126 459 73 C460.35284196 75.75201412 461.39182812 78.30236551 462.375 81.1875 C462.67245117 82.02885498 462.96990234 82.87020996 463.27636719 83.73706055 C466.70809006 93.67574572 469.45053504 103.80419785 472 114 C472.30808594 115.23105469 472.61617187 116.46210937 472.93359375 117.73046875 C476.92428825 135.03726304 478.47421595 152.39096771 478.28125 170.11669922 C478.24970576 173.02714853 478.24021275 175.93705151 478.234375 178.84765625 C478.17553788 193.54230525 477.524426 207.77699166 474.75 222.25 C474.52747559 223.42312744 474.30495117 224.59625488 474.07568359 225.80493164 C472.21272917 235.37243014 469.97448837 244.71868616 467 254 C466.75024414 254.78358887 466.50048828 255.56717773 466.24316406 256.37451172 C457.83565523 282.35340528 445.96194821 307.78777219 430 330 C429.26136719 331.03253906 428.52273438 332.06507813 427.76171875 333.12890625 C419.93516262 343.7913726 411.31317255 353.69922094 402.3125 363.375 C401.70712402 364.02887695 401.10174805 364.68275391 400.47802734 365.35644531 C396.22660526 369.87854856 391.71728196 373.97151113 387 378 C386.03578125 378.85722656 385.0715625 379.71445313 384.078125 380.59765625 C359.11151307 402.35723101 329.29745535 419.37786472 298.03320312 430.28955078 C296.64146492 430.775857 295.25223349 431.26938066 293.86523438 431.76904297 C279.22545296 437.03897319 264.45809134 440.18075711 249.125 442.6875 C248.40127197 442.80697998 247.67754395 442.92645996 246.93188477 443.04956055 C178.74341867 453.62432435 106.72804057 436.2681825 50.9375 395.77734375 C47.93627685 393.54556684 44.96174745 391.2838543 42 389 C40.73542969 388.02933594 40.73542969 388.02933594 39.4453125 387.0390625 C21.79759931 373.22535729 5.22731263 357.10875884 -8 339 C-8.85806152 337.84894983 -9.71613451 336.69790823 -10.57421875 335.546875 C-26.12551538 314.45615138 -38.10661273 291.00221423 -47.09960938 266.43554688 C-47.85275793 264.39828821 -48.64795127 262.37663821 -49.453125 260.359375 C-56.12995657 243.20245337 -59.60365458 224.2205641 -62 206 C-62.09571289 205.30076416 -62.19142578 204.60152832 -62.29003906 203.88110352 C-63.18964884 196.34647429 -63.15142575 188.80145713 -63.13037109 181.22583008 C-63.12506745 178.96623849 -63.13031417 176.70685074 -63.13671875 174.44726562 C-63.14505712 160.36855555 -62.74972115 146.33421725 -60.3125 132.4375 C-60.13952393 131.43428711 -59.96654785 130.43107422 -59.78833008 129.39746094 C-56.51247934 111.1119212 -51.73361005 93.31499727 -45 76 C-44.67161133 75.15373047 -44.34322266 74.30746094 -44.00488281 73.43554688 C-34.4942176 49.32018494 -20.7359193 27.65919786 -5.375 6.875 C-4.61123047 5.83412231 -4.61123047 5.83412231 -3.83203125 4.7722168 C-2.60532499 3.14210969 -1.30898137 1.56480835 0 0 Z " fill="#65FE98" transform="translate(676,972)"/>
</svg>
