{
  "accessors": [
    {
      "bufferView": 2,
      "componentType": 5126,
      "count": 15312,
      "max": [
        0.5444914698600769,
        0.47564929723739624,
        0.06730248034000397
      ],
      "min": [
        -0.5048334002494812,
        -0.44850343465805054,
        -0.00099201500415802
      ],
      "type": "VEC3"
    },
    {
      "bufferView": 2,
      "byteOffset": 183744,
      "componentType": 5126,
      "count": 15312,
      "max": [
        0.999846339225769,
        0.999756932258606,
        0.9999996423721313
      ],
      "min": [
        -0.999014675617218,
        -0.9999641180038452,
        -0.9999988079071045
      ],
      "type": "VEC3"
    },
    {
      "bufferView": 3,
      "componentType": 5126,
      "count": 15312,
      "max": [
        0.9999902844429016,
        0.9978710412979126,
        0.9999206066131592,
        1.0
      ],
      "min": [
        -0.9997799396514893,
        -0.9997999668121338,
        -0.9999943971633911,
        1.0
      ],
      "type": "VEC4"
    },
    {
      "bufferView": 1,
      "componentType": 5126,
      "count": 15312,
      "max": [
        0.9797257781028748,
        0.9857881665229797
      ],
      "min": [
        0.017198659479618073,
        0.05253953859210014
      ],
      "type": "VEC2"
    },
    {
      "bufferView": 1,
      "byteOffset": 122496,
      "componentType": 5126,
      "count": 15312,
      "max": [
        0.9797257781028748,
        0.9857881665229797
      ],
      "min": [
        0.017198659479618073,
        0.05253953859210014
      ],
      "type": "VEC2"
    },
    {
      "bufferView": 1,
      "byteOffset": 244992,
      "componentType": 5126,
      "count": 15312,
      "max": [
        0.9797257781028748,
        0.9857881665229797
      ],
      "min": [
        0.017198659479618073,
        0.05253953859210014
      ],
      "type": "VEC2"
    },
    {
      "bufferView": 0,
      "componentType": 5125,
      "count": 63360,
      "type": "SCALAR"
    }
  ],
  "asset": {
    "extras": {
      "author": "denis_cliofas (https://sketchfab.com/denis_cliofas)",
      "license": "CC-BY-4.0 (http://creativecommons.org/licenses/by/4.0/)",
      "source": "https://sketchfab.com/3d-models/roman-coins-ea59329cf7204686b0b4a6badd70754d",
      "title": "Roman Coins"
    },
    "generator": "Sketchfab-12.63.0",
    "version": "2.0"
  },
  "bufferViews": [
    {
      "buffer": 0,
      "byteLength": 253440,
      "name": "floatBufferViews",
      "target": 34963
    },
    {
      "buffer": 0,
      "byteLength": 367488,
      "byteOffset": 253440,
      "byteStride": 8,
      "name": "floatBufferViews",
      "target": 34962
    },
    {
      "buffer": 0,
      "byteLength": 367488,
      "byteOffset": 620928,
      "byteStride": 12,
      "name": "floatBufferViews",
      "target": 34962
    },
    {
      "buffer": 0,
      "byteLength": 244992,
      "byteOffset": 988416,
      "byteStride": 16,
      "name": "floatBufferViews",
      "target": 34962
    }
  ],
  "buffers": [
    {
      "byteLength": 1233408,
      "uri": "scene.bin"
    }
  ],
  "images": [
    {
      "uri": "textures/Coin_baseColor.png"
    },
    {
      "uri": "textures/Coin_metallicRoughness.png"
    },
    {
      "uri": "textures/Coin_normal.png"
    }
  ],
  "materials": [
    {
      "name": "Coin",
      "normalTexture": {
        "index": 2
      },
      "occlusionTexture": {
        "index": 1
      },
      "pbrMetallicRoughness": {
        "baseColorTexture": {
          "index": 0
        },
        "metallicRoughnessTexture": {
          "index": 1
        }
      }
    }
  ],
  "meshes": [
    {
      "name": "Coins_Coin_0",
      "primitives": [
        {
          "attributes": {
            "NORMAL": 1,
            "POSITION": 0,
            "TANGENT": 2,
            "TEXCOORD_0": 3,
            "TEXCOORD_1": 4,
            "TEXCOORD_2": 5
          },
          "indices": 6,
          "material": 0,
          "mode": 4
        }
      ]
    }
  ],
  "nodes": [
    {
      "children": [
        1
      ],
      "matrix": [
        0.0036782966926693916,
        0.0,
        0.0,
        0.0,
        0.0,
        8.167459359208244e-19,
        -0.0036782966926693916,
        0.0,
        0.0,
        0.0036782966926693916,
        8.167459359208244e-19,
        0.0,
        0.0,
        0.0,
        0.0,
        1.0
      ],
      "name": "Sketchfab_model"
    },
    {
      "children": [
        2
      ],
      "matrix": [
        1.0,
        0.0,
        0.0,
        0.0,
        0.0,
        0.0,
        1.0,
        0.0,
        0.0,
        -1.0,
        0.0,
        0.0,
        0.0,
        0.0,
        0.0,
        1.0
      ],
      "name": "5f554975beba42079045b1b53763fed5.fbx"
    },
    {
      "children": [
        3
      ],
      "name": "RootNode"
    },
    {
      "children": [
        4
      ],
      "matrix": [
        100.0,
        0.0,
        0.0,
        0.0,
        0.0,
        -1.629206793918314e-05,
        -99.99999999999868,
        0.0,
        0.0,
        99.99999999999868,
        -1.629206793918314e-05,
        0.0,
        0.0,
        0.0,
        0.0,
        1.0
      ],
      "name": "Coins"
    },
    {
      "mesh": 0,
      "name": "Coins_Coin_0"
    }
  ],
  "samplers": [
    {
      "magFilter": 9729,
      "minFilter": 9987,
      "wrapS": 10497,
      "wrapT": 10497
    }
  ],
  "scene": 0,
  "scenes": [
    {
      "name": "Sketchfab_Scene",
      "nodes": [
        0
      ]
    }
  ],
  "textures": [
    {
      "sampler": 0,
      "source": 0
    },
    {
      "sampler": 0,
      "source": 1
    },
    {
      "sampler": 0,
      "source": 2
    }
  ]
}
